<?xml version="1.0" encoding="utf-8"?>
<!-- Generator: Adobe Illustrator 17.1.0, SVG Export Plug-In . SVG Version: 6.00 Build 0)  -->
<!DOCTYPE svg PUBLIC "-//W3C//DTD SVG 1.1//EN" "http://www.w3.org/Graphics/SVG/1.1/DTD/svg11.dtd">
<svg version="1.1" id="Layer_1" xmlns="http://www.w3.org/2000/svg" xmlns:xlink="http://www.w3.org/1999/xlink" x="0px" y="0px"
	 viewBox="0 0 186.4 50.2" enable-background="new 0 0 186.4 50.2" xml:space="preserve">
<g>
	<path fill-rule="evenodd" clip-rule="evenodd" fill="#46483E" d="M27.9,26.7c0-0.5-0.3-1-0.8-1.3l-12.5-7.2C14.5,18,14.3,18,14,18
		c0,0-0.1,0-0.1,0c-0.2,0-0.5,0.1-0.7,0.2L0.8,25.3C0.3,25.6,0,26.1,0,26.7L0,46c0,0.3,0.1,0.5,0.4,0.7c0.2,0.1,0.5,0.1,0.7,0
		l7.4-4.2c0.5-0.3,0.8-0.8,0.8-1.3v-9c0-0.5,0.3-1,0.8-1.3l3.2-1.8c0.2-0.1,0.5-0.2,0.8-0.2c0.3,0,0.5,0.1,0.7,0.2l3.2,1.8
		c0.5,0.3,0.8,0.8,0.8,1.3v9c0,0.5,0.3,1,0.8,1.3l7.4,4.2c0.2,0.1,0.5,0.1,0.8,0c0.2-0.1,0.4-0.4,0.4-0.7L27.9,26.7z"/>
	<path fill-rule="evenodd" clip-rule="evenodd" fill="#46483E" d="M94.5,0.1C94.3,0,94,0,93.8,0.1c-0.2,0.1-0.4,0.4-0.4,0.6v19.1
		c0,0.2-0.1,0.4-0.3,0.5c-0.2,0.1-0.4,0.1-0.5,0l-3.1-1.8c-0.5-0.3-1-0.3-1.5,0l-12.5,7.2C75,26,74.8,26.5,74.8,27v14.4
		c0,0.5,0.3,1,0.8,1.3L88,50c0.5,0.3,1,0.3,1.5,0l12.5-7.2c0.5-0.3,0.8-0.8,0.8-1.3V5.6c0-0.5-0.3-1-0.8-1.3L94.5,0.1z M93.4,36.7
		c0,0.1-0.1,0.3-0.2,0.3l-4.3,2.5c-0.1,0.1-0.3,0.1-0.4,0L84.2,37c-0.1-0.1-0.2-0.2-0.2-0.3v-4.9c0-0.1,0.1-0.3,0.2-0.3l4.3-2.5
		c0.1-0.1,0.3-0.1,0.4,0l4.3,2.5c0.1,0.1,0.2,0.2,0.2,0.3V36.7z"/>
	<path fill-rule="evenodd" clip-rule="evenodd" fill="#46483E" d="M139.2,31.6c0.5-0.3,0.7-0.8,0.7-1.3v-3.5c0-0.5-0.3-1-0.8-1.3
		l-12.4-7.2c-0.5-0.3-1-0.3-1.5,0l-12.5,7.2c-0.5,0.3-0.8,0.8-0.8,1.3v14.4c0,0.5,0.3,1,0.8,1.3l12.4,7.1c0.5,0.3,1,0.3,1.5,0
		l7.5-4.2c0.2-0.1,0.4-0.4,0.4-0.7c0-0.3-0.1-0.5-0.4-0.7l-12.5-7.2c-0.2-0.1-0.4-0.4-0.4-0.7v-4.5c0-0.3,0.1-0.5,0.4-0.7l3.9-2.3
		c0.2-0.1,0.5-0.1,0.8,0l3.9,2.3c0.2,0.1,0.4,0.4,0.4,0.7v3.5c0,0.3,0.1,0.5,0.4,0.7c0.2,0.1,0.5,0.1,0.8,0L139.2,31.6z"/>
	<g>
		<path fill-rule="evenodd" clip-rule="evenodd" fill="#8CC84B" d="M50.6,18.3c0.5-0.3,1-0.3,1.5,0l12.5,7.2
			c0.5,0.3,0.8,0.8,0.8,1.3v14.4c0,0.5-0.3,1-0.8,1.3l-12.5,7.2c-0.5,0.3-1,0.3-1.5,0l-12.5-7.2c-0.5-0.3-0.8-0.8-0.8-1.3V26.8
			c0-0.5,0.3-1,0.8-1.3L50.6,18.3z"/>
	</g>
	<path fill="#8CC84B" d="M163.4,49.9c-0.4,0-0.9-0.1-1.2-0.3l-3.9-2.3c-0.6-0.3-0.3-0.4-0.1-0.5c0.8-0.3,0.9-0.3,1.8-0.8
		c0.1,0,0.2,0,0.3,0l3,1.8c0.1,0.1,0.3,0.1,0.4,0l11.8-6.8c0.1-0.1,0.2-0.2,0.2-0.3V27.1c0-0.1-0.1-0.3-0.2-0.3L163.6,20
		c-0.1-0.1-0.3-0.1-0.4,0l-11.8,6.8c-0.1,0.1-0.2,0.2-0.2,0.3v13.6c0,0.1,0.1,0.3,0.2,0.3l3.2,1.9c1.7,0.9,2.8-0.2,2.8-1.2V28.2
		c0-0.2,0.2-0.3,0.3-0.3h1.5c0.2,0,0.3,0.1,0.3,0.3v13.4c0,2.3-1.3,3.7-3.5,3.7c-0.7,0-1.2,0-2.7-0.7l-3.1-1.8
		c-0.8-0.4-1.2-1.3-1.2-2.1V27.1c0-0.9,0.5-1.7,1.2-2.1l11.8-6.8c0.7-0.4,1.7-0.4,2.5,0l11.8,6.8c0.8,0.4,1.2,1.3,1.2,2.1v13.6
		c0,0.9-0.5,1.7-1.2,2.1l-11.8,6.8C164.2,49.8,163.8,49.9,163.4,49.9z"/>
	<path fill="#8CC84B" d="M167,40.5c-5.1,0-6.2-2.4-6.2-4.3c0-0.2,0.2-0.3,0.3-0.3h1.5c0.2,0,0.3,0.1,0.3,0.3c0.2,1.5,0.9,2.3,4,2.3
		c2.5,0,3.5-0.6,3.5-1.9c0-0.8-0.3-1.3-4.1-1.7c-3.2-0.3-5.2-1-5.2-3.6c0-2.4,2-3.8,5.4-3.8c3.8,0,5.6,1.3,5.9,4.1
		c0,0.1,0,0.2-0.1,0.3c-0.1,0.1-0.2,0.1-0.2,0.1h-1.5c-0.2,0-0.3-0.1-0.3-0.3c-0.4-1.6-1.3-2.1-3.7-2.1c-2.7,0-3,0.9-3,1.6
		c0,0.9,0.4,1.1,4,1.6c3.6,0.5,5.3,1.2,5.3,3.7C172.9,39.1,170.7,40.5,167,40.5z"/>
	<g>
		<path fill="#8CC84B" d="M183.2,18.1v0.3h-1v2.6h-0.4v-2.6h-1v-0.3H183.2z"/>
		<path fill="#8CC84B" d="M183.6,18.1h0.6l0.8,2.5l0.8-2.5h0.6v2.9H186v-1.7c0-0.1,0-0.2,0-0.3c0-0.1,0-0.3,0-0.4l-0.8,2.5h-0.4
			l-0.8-2.5v0.1c0,0.1,0,0.2,0,0.3c0,0.1,0,0.3,0,0.3v1.7h-0.4V18.1z"/>
	</g>
	<path fill-rule="evenodd" clip-rule="evenodd" fill="#8CC84B" d="M125.8,31c0.1-0.1,0.2-0.1,0.3,0l2.4,1.4c0.1,0.1,0.1,0.1,0.1,0.3
		v2.8c0,0.1-0.1,0.2-0.1,0.3l-2.4,1.4c-0.1,0.1-0.2,0.1-0.3,0l-2.4-1.4c-0.1-0.1-0.1-0.1-0.1-0.3v-2.8c0-0.1,0.1-0.2,0.1-0.3
		L125.8,31z"/>
</g>
</svg>
